:SAMPLES-PER-SECOND 30
:FULLY-SPECIFIED
:DEGREES
357
root  36.0824 38.3269 26.1976 -123.862 84.3785 -134.895
RightUpLeg  -37.5071 -27.5412 9.2104
RightLeg  13.5019 -1.27013 3.47955
RightFoot  6.36013 -1.48514 9.68208
RightToes  0.00048216 0.542163 -0.142577
Spine  60.8305 -3.4808 3.90082
Spine1  7.42826 0.253604 -3.25302
HEad  -30.7881 8.17548 -18.0091
LeftShoulder1  8.9007 -19.8508 -32.0019
LeftArm  -19.4245 -28.2989 -27.0778
LeftForeArm  7.39517 -56.7707 -16.7504
LeftHand  -0.25398 0.0180481 5.50724
RightShoulder  5.17303 12.2165 26.8515
RightArm  -26.9469 5.14893 26.1797
RightForeArm  -8.18581 70.4654 36.7426
RightHand  -0.0389849 -6.25908 -0.721897
LeftUpLeg  -42.6167 30.0229 -15.0045
LeftLeg  18.9092 3.88447 0.868599
LeftFoot  4.91104 -2.06778 14.1919
LeftToes  1.06248e-005 4.65855e-005 -8.185e-006
358
root  35.4923 38.4934 26.0217 -112.664 83.9041 -121.543
RightUpLeg  -36.8819 -28.5996 11.4578
RightLeg  21.0982 2.85141 0.468437
RightFoot  2.6492 -0.814835 6.75461
RightToes  0.00048216 0.542163 -0.142577
Spine  58.031 -3.1388 3.71485
Spine1  7.78357 0.159368 -3.24766
HEad  -31.0475 12.6001 -21.1107
LeftShoulder1  9.38394 -19.0291 -35.528
LeftArm  -18.0948 -20.3569 -25.7027
LeftForeArm  10.2144 -61.3587 -20.2151
LeftHand  -0.25398 0.0180481 5.50724
RightShoulder  5.31677 11.7772 28.8002
RightArm  -25.3296 -0.0412717 27.8593
RightForeArm  3.21678 73.8326 46.6588
RightHand  -0.0393273 -7.60737 -0.746761
LeftUpLeg  -37.8008 27.0862 -9.29118
LeftLeg  16.0368 9.19348 -0.329122
LeftFoot  6.64369 -2.40337 14.8426
LeftToes  1.06248e-005 4.65855e-005 -8.185e-006
359
root  34.9394 38.6232 25.9561 -109.855 83.2659 -116.359
RightUpLeg  -32.394 -22.1951 6.90973
RightLeg  29.1612 -0.707089 -0.624628
RightFoot  -1.07313 -0.486546 5.43282
RightToes  0.00048216 0.542163 -0.142577
Spine  56.157 -3.02291 3.37023
Spine1  6.74685 -0.280586 -3.11629
HEad  -31.3404 17.5111 -24.4945
LeftShoulder1  9.73658 -18.0451 -38.9601
LeftArm  -17.1838 -11.7406 -23.6635
LeftForeArm  13.7559 -65.9303 -25.0182
LeftHand  -0.25398 0.0180481 5.50724
RightShoulder  5.46256 11.3292 30.8687
RightArm  -23.2157 -5.32063 28.7686
RightForeArm  17.4 76.3895 60.0236
RightHand  -0.0326653 -8.68294 -1.01621
LeftUpLeg  -32.7232 22.6858 -3.64065
LeftLeg  12.8386 15.0493 -2.06271
LeftFoot  8.45772 -2.72645 15.2307
LeftToes  1.06248e-005 4.65855e-005 -8.185e-006
360
root  34.3895 38.6593 25.9764 -111.605 82.7388 -115.522
RightUpLeg  -27.9488 -17.1963 4.33558
RightLeg  36.2557 0.0892748 -0.154544
RightFoot  -4.87375 -0.44736 7.37595
RightToes  0.00048216 0.542163 -0.142577
Spine  53.8018 -2.75877 2.86189
Spine1  6.8856 -0.604197 -2.49803
HEad  -31.3241 22.1472 -28.963
LeftShoulder1  10.2188 -17.2244 -42.8408
LeftArm  -17.3162 -4.23267 -21.2573
LeftForeArm  18.1932 -69.768 -30.9521
LeftHand  -0.25398 0.0180481 5.50724
RightShoulder  5.44974 10.9643 31.7183
RightArm  -21.7152 -9.80645 29.814
RightForeArm  32.8372 77.7465 73.889
RightHand  -0.0517152 -9.71321 -0.495363
LeftUpLeg  -28.5093 18.6172 0.516853
LeftLeg  10.16 19.6403 -3.82946
LeftFoot  9.96852 -3.03154 15.682
LeftToes  1.06248e-005 4.65855e-005 -8.185e-006
361
root  33.8342 38.6001 26.0682 -118.616 82.1951 -119.982
RightUpLeg  -23.1786 -13.2981 2.92037
RightLeg  41.7551 3.00551 2.59561
RightFoot  -8.10074 -0.337881 9.92881
RightToes  0.00048216 0.542163 -0.142577
Spine  51.3808 -2.65059 2.56051
Spine1  6.95392 -0.921982 -1.9084
HEad  -31.6772 27.6655 -31.7017
LeftShoulder1  10.5305 -16.463 -45.9905
LeftArm  -18.1177 2.7584 -19.7873
LeftForeArm  24.087 -72.8005 -37.8572
LeftHand  -0.25398 0.0180481 5.50724
RightShoulder  5.37429 10.6602 31.9976
RightArm  -20.527 -14.0711 30.7868
RightForeArm  47.6385 78.2642 86.5733
RightHand  -0.110137 -10.9066 0.62743
LeftUpLeg  -25.3715 15.7022 2.67264
LeftLeg  8.11264 21.9273 -5.13155
LeftFoot  11.2829 -3.36259 16.3447
LeftToes  1.06248e-005 4.65855e-005 -8.185e-006
362
root  33.2493 38.4525 26.2272 -129.702 81.5211 -128.689
RightUpLeg  -18.241 -10.2955 2.37178
RightLeg  46.0353 6.21791 6.55107
RightFoot  -9.75404 -0.249656 12.9476
RightToes  0.00048216 0.542163 -0.142577
Spine  48.9432 -2.63363 2.46189
Spine1  6.67527 -1.0985 -1.77487
HEad  -31.5344 33.347 -33.2769
LeftShoulder1  10.4906 -15.777 -47.4845
LeftArm  -19.3793 9.19785 -19.901
LeftForeArm  31.5345 -75.0743 -45.4016
LeftHand  -0.25398 0.0180481 5.50724
RightShoulder  5.31961 10.3932 32.3361
RightArm  -19.4616 -18.0484 31.3344
RightForeArm  59.4736 78.2562 96.8491
RightHand  -0.172895 -11.9523 1.48219
LeftUpLeg  -23.046 13.3824 3.48903
LeftLeg  6.52197 22.6816 -6.02303
LeftFoot  12.6526 -3.66208 16.743
LeftToes  1.06248e-005 4.65855e-005 -8.185e-006
363
root  32.6057 38.2428 26.4331 -142.127 80.5311 -138.898
RightUpLeg  -13.1641 -7.81136 2.52942
RightLeg  48.8496 8.63815 10.1005
RightFoot  -9.97542 -0.264103 16.5523
RightToes  0.00048216 0.542163 -0.142577
Spine  46.3412 -2.62881 2.68343
Spine1  6.47106 -0.903205 -2.49581
HEad  -30.9931 37.9056 -34.6363
LeftShoulder1  10.1889 -15.2602 -47.3904
LeftArm  -20.7844 14.6582 -21.2265
LeftForeArm  40.2714 -76.765 -53.5507
LeftHand  -0.25398 0.0180481 5.50724
RightShoulder  5.35623 10.1732 33.2189
RightArm  -18.327 -21.2508 31.0989
RightForeArm  66.1991 78.0318 103.328
RightHand  -0.1857 -12.4316 1.52054
LeftUpLeg  -21.2114 11.235 3.63939
LeftLeg  5.04657 22.7027 -6.8794
LeftFoot  14.3502 -3.94486 16.7795
LeftToes  1.06248e-005 4.65855e-005 -8.185e-006
364
root  31.9148 38.0547 26.6418 -153.38 78.8197 -148.116
RightUpLeg  -7.81631 -6.44891 3.53661
RightLeg  48.7758 9.77316 11.4103
RightFoot  -10.7218 -0.165174 16.2245
RightToes  0.00048216 0.542163 -0.142577
Spine  43.3639 -2.70878 3.6513
Spine1  6.68842 -0.503469 -3.39471
HEad  -29.9847 41.6319 -35.4574
LeftShoulder1  9.88533 -14.9007 -46.8681
LeftArm  -21.8545 18.7994 -22.5856
LeftForeArm  49.7102 -77.9728 -62.1612
LeftHand  -0.25398 0.0180481 5.50724
RightShoulder  5.40748 9.9824 34.1464
RightArm  -16.9605 -23.3493 30.2734
RightForeArm  67.8964 77.8789 105.709
RightHand  -0.149959 -12.3619 0.970365
LeftUpLeg  -19.2671 9.55035 3.39389
LeftLeg  2.68931 21.7321 -8.19044
LeftFoot  16.6828 -4.31928 16.7589
LeftToes  1.06248e-005 4.65855e-005 -8.185e-006
